<svg width="32" height="33" viewBox="0 0 32 33" fill="none" xmlns="http://www.w3.org/2000/svg">
<path d="M29.3334 16.3618C29.3334 16.0082 29.1929 15.669 28.9429 15.419C28.6928 15.1689 28.3537 15.0284 28.0001 15.0284C27.6465 15.0284 27.3073 15.1689 27.0573 15.419C26.8072 15.669 26.6667 16.0082 26.6667 16.3618H29.3334ZM16.0001 5.69511C16.3537 5.69511 16.6928 5.55463 16.9429 5.30458C17.1929 5.05454 17.3334 4.7154 17.3334 4.36178C17.3334 4.00815 17.1929 3.66902 16.9429 3.41897C16.6928 3.16892 16.3537 3.02844 16.0001 3.02844V5.69511ZM26.0001 27.0284H6.00008V29.6951H26.0001V27.0284ZM5.33341 26.3618V6.36178H2.66675V26.3618H5.33341ZM26.6667 16.3618V26.3618H29.3334V16.3618H26.6667ZM6.00008 5.69511H16.0001V3.02844H6.00008V5.69511ZM6.00008 27.0284C5.82327 27.0284 5.6537 26.9582 5.52868 26.8332C5.40365 26.7082 5.33341 26.5386 5.33341 26.3618H2.66675C2.66675 27.2458 3.01794 28.0937 3.64306 28.7188C4.26818 29.3439 5.11603 29.6951 6.00008 29.6951V27.0284ZM26.0001 29.6951C26.8841 29.6951 27.732 29.3439 28.3571 28.7188C28.9822 28.0937 29.3334 27.2458 29.3334 26.3618H26.6667C26.6667 26.5386 26.5965 26.7082 26.4715 26.8332C26.3465 26.9582 26.1769 27.0284 26.0001 27.0284V29.6951ZM5.33341 6.36178C5.33341 6.18496 5.40365 6.0154 5.52868 5.89037C5.6537 5.76535 5.82327 5.69511 6.00008 5.69511V3.02844C5.11603 3.02844 4.26818 3.37963 3.64306 4.00475C3.01794 4.62987 2.66675 5.47772 2.66675 6.36178H5.33341Z" fill="#302525"/>
<path d="M4 23.6952L11.1287 17.1605C11.3689 16.9403 11.6816 16.8157 12.0074 16.8103C12.3333 16.8049 12.6499 16.919 12.8973 17.1311L21.3333 24.3618M18.6667 21.0285L21.8487 17.8465C22.0756 17.6194 22.3769 17.4818 22.6972 17.459C23.0175 17.4362 23.3352 17.5298 23.592 17.7225L28 21.0285M20 8.36182H28M24 4.36182V12.3618" stroke="#302525" stroke-width="2.66667" stroke-linecap="round" stroke-linejoin="round"/>
</svg>
