<svg width="25" height="25" viewBox="0 0 25 25" fill="none" xmlns="http://www.w3.org/2000/svg">
<path d="M12.5001 6.24223V2.07556H16.6667M22.9167 12.4922H20.8334M15.6251 11.4506V13.5339M9.37508 11.4506V13.5339M4.16675 12.4922H2.08341M16.6667 18.7422L20.8334 22.9089V8.32556C20.8334 7.77303 20.6139 7.24312 20.2232 6.85242C19.8325 6.46172 19.3026 6.24223 18.7501 6.24223H6.25008C5.69755 6.24223 5.16764 6.46172 4.77694 6.85242C4.38624 7.24312 4.16675 7.77303 4.16675 8.32556V16.6589C4.16675 17.2114 4.38624 17.7413 4.77694 18.132C5.16764 18.5227 5.69755 18.7422 6.25008 18.7422H16.6667Z" stroke="#302525" stroke-width="2" stroke-linecap="round" stroke-linejoin="round"/>
</svg>
