<svg width="101" height="101" viewBox="0 0 101 101" fill="none" xmlns="http://www.w3.org/2000/svg">
<path d="M79.6668 27.3646H74.3335L73.0002 23.198C72.1358 20.7531 70.5324 18.6376 68.4123 17.1445C66.2921 15.6514 63.76 14.8546 61.1668 14.8646H39.8335C37.2149 14.8695 34.6641 15.6966 32.5409 17.2292C30.4177 18.7618 28.8294 20.9225 28.0002 23.4063L26.6668 27.573H21.3335C18.0183 27.573 14.8389 28.8899 12.4947 31.2341C10.1505 33.5783 8.8335 36.7578 8.8335 40.073V73.4063C8.8335 76.7215 10.1505 79.9009 12.4947 82.2451C14.8389 84.5893 18.0183 85.9063 21.3335 85.9063H79.6668C82.982 85.9063 86.1615 84.5893 88.5057 82.2451C90.8499 79.9009 92.1668 76.7215 92.1668 73.4063V40.073C92.1945 38.414 91.8916 36.7661 91.2758 35.2254C90.66 33.6847 89.7437 32.282 88.5802 31.0991C87.4167 29.9163 86.0293 28.9768 84.499 28.3357C82.9687 27.6945 81.326 27.3644 79.6668 27.3646ZM83.8335 73.198C83.8335 74.303 83.3945 75.3628 82.6131 76.1442C81.8317 76.9256 80.7719 77.3646 79.6668 77.3646H21.3335C20.2284 77.3646 19.1686 76.9256 18.3872 76.1442C17.6058 75.3628 17.1668 74.303 17.1668 73.198V39.8646C17.1668 38.7596 17.6058 37.6997 18.3872 36.9183C19.1686 36.1369 20.2284 35.698 21.3335 35.698H29.6668C30.5754 35.7454 31.4746 35.4941 32.227 34.9825C32.9793 34.4709 33.5436 33.727 33.8335 32.8646L36.0835 26.0313C36.363 25.2037 36.8956 24.4849 37.6059 23.9765C38.3162 23.468 39.1683 23.1957 40.0418 23.198H61.3752C62.2487 23.1957 63.1008 23.468 63.8111 23.9765C64.5214 24.4849 65.054 25.2037 65.3335 26.0313L67.5835 32.8646C67.8509 33.6594 68.3518 34.355 69.0209 34.8605C69.6899 35.366 70.4959 35.6579 71.3335 35.698H79.6668C80.7719 35.698 81.8317 36.1369 82.6131 36.9183C83.3945 37.6997 83.8335 38.7596 83.8335 39.8646V73.198ZM50.5002 35.698C47.2038 35.698 43.9815 36.6754 41.2407 38.5068C38.4998 40.3382 36.3636 42.9411 35.1022 45.9866C33.8407 49.032 33.5107 52.3831 34.1537 55.6161C34.7968 58.8491 36.3842 61.8189 38.7151 64.1497C41.0459 66.4806 44.0156 68.068 47.2487 68.711C50.4817 69.3541 53.8328 69.0241 56.8782 67.7626C59.9237 66.5012 62.5266 64.3649 64.358 61.6241C66.1894 58.8833 67.1668 55.661 67.1668 52.3646C67.1668 47.9443 65.4109 43.7051 62.2853 40.5795C59.1597 37.4539 54.9204 35.698 50.5002 35.698ZM50.5002 60.698C48.852 60.698 47.2408 60.2092 45.8704 59.2935C44.5 58.3779 43.4319 57.0764 42.8012 55.5536C42.1704 54.0309 42.0054 52.3554 42.327 50.7389C42.6485 49.1224 43.4422 47.6375 44.6076 46.4721C45.773 45.3066 47.2579 44.513 48.8744 44.1914C50.4909 43.8699 52.1665 44.0349 53.6892 44.6656C55.2119 45.2964 56.5134 46.3645 57.4291 47.7349C58.3448 49.1053 58.8335 50.7164 58.8335 52.3646C58.8335 54.5748 57.9555 56.6944 56.3927 58.2572C54.8299 59.82 52.7103 60.698 50.5002 60.698Z" fill="#DADADA"/>
</svg>
