<svg width="79" height="59" viewBox="0 0 79 59" fill="none" xmlns="http://www.w3.org/2000/svg">
<path d="M31.114 0.412128C21.4063 0.412128 13.5724 7.73521 12.2678 17.046C5.37549 18.886 0.150879 24.9229 0.150879 32.3352C0.150879 40.5567 6.55396 47.166 14.5755 48.1044C16.8124 54.3567 22.557 58.8737 29.5755 58.8737C34.3816 58.8737 38.3293 56.4337 41.3078 53.1044C43.754 54.9967 46.637 56.3752 49.9601 56.3752C56.2924 56.3752 61.5047 52.1598 63.4216 46.4675H63.7109C72.1047 46.4675 78.997 39.6367 78.997 31.2767C78.997 24.1444 73.8647 18.3691 67.1724 16.7567C65.0186 10.8306 59.5109 6.47059 52.8432 6.47059C50.3447 6.47059 48.117 7.23982 46.0186 8.2952C42.4801 3.7352 37.3293 0.412128 31.114 0.412128ZM31.114 6.56597C33.4982 6.55871 35.8397 7.19887 37.8886 8.41813C39.9375 9.6374 41.617 11.39 42.7478 13.4891L44.3816 16.6614L47.2678 14.449C48.8793 13.2501 50.8378 12.6095 52.8463 12.6244C57.3632 12.6244 61.0832 15.7198 61.9786 19.8337L62.4616 22.049L64.6709 22.2398C66.9119 22.4635 68.9896 23.5123 70.5005 25.1824C72.0114 26.8525 72.8475 29.0246 72.8463 31.2767C72.8463 36.2767 68.8093 40.3167 63.7078 40.3167C63.0893 40.3167 62.477 40.2398 61.8832 40.1229L58.517 39.4491L58.2309 42.8152C57.8401 46.9567 54.3201 50.2214 49.9601 50.2214C47.3201 50.2214 45.037 49.0214 43.517 47.1444L40.634 43.5844L38.4216 47.6244C36.7201 50.6952 33.4124 52.7198 29.5755 52.7198C27.2666 52.7409 25.0229 51.9549 23.2318 50.4976C21.4408 49.0403 20.2151 47.0032 19.7663 44.7383L19.2863 42.2398H16.6924C16.5263 42.2398 16.4616 42.3167 16.4032 42.3352C10.794 42.3352 6.30473 37.8337 6.30473 32.3352C6.30473 27.2183 10.2124 23.0829 15.2493 22.526L17.9416 22.2398V19.4521C17.9878 12.3014 23.8309 6.56597 31.114 6.56597Z" fill="white"/>
</svg>
