<svg width="21" height="21" viewBox="0 0 21 21" fill="none" xmlns="http://www.w3.org/2000/svg">
<path d="M10.1766 2.31201C5.58159 2.31201 1.84326 6.05034 1.84326 10.6453C1.84326 15.2403 5.58159 18.9787 10.1766 18.9787C14.7716 18.9787 18.5099 15.2403 18.5099 10.6453C18.5099 6.05034 14.7716 2.31201 10.1766 2.31201ZM13.6649 11.262L10.1766 14.7503L6.68826 11.262C6.47271 11.0492 6.30157 10.7958 6.18475 10.5163C6.06794 10.2368 6.00779 9.93698 6.00779 9.63409C6.00779 9.33121 6.06794 9.03134 6.18475 8.75189C6.30157 8.47243 6.47271 8.21896 6.68826 8.00618C6.90103 7.79075 7.15445 7.61971 7.43383 7.50298C7.7132 7.38624 8.01298 7.32613 8.31576 7.32613C8.61855 7.32613 8.91832 7.38624 9.19769 7.50298C9.47707 7.61971 9.73049 7.79075 9.94326 8.00618L10.1766 8.23868L10.4091 8.00618C10.6219 7.79075 10.8753 7.61971 11.1547 7.50298C11.434 7.38624 11.7338 7.32613 12.0366 7.32613C12.3394 7.32613 12.6392 7.38624 12.9185 7.50298C13.1979 7.61971 13.4513 7.79075 13.6641 8.00618C13.8797 8.21891 14.0509 8.47234 14.1678 8.75176C14.2847 9.03118 14.3449 9.33104 14.345 9.63392C14.3451 9.93681 14.285 10.2367 14.1682 10.5162C14.0515 10.7957 13.8804 11.0492 13.6649 11.262Z" fill="#FFC28C"/>
</svg>
