<svg width="33" height="33" viewBox="0 0 33 33" fill="none" xmlns="http://www.w3.org/2000/svg">
<path d="M11.1667 12.9159H21.8333M11.1667 18.2493H15.8333M14.4733 26.9319L11.1667 28.9159V24.9159H8.5C7.43913 24.9159 6.42172 24.4945 5.67157 23.7444C4.92143 22.9942 4.5 21.9768 4.5 20.9159V10.2493C4.5 9.1884 4.92143 8.17099 5.67157 7.42084C6.42172 6.6707 7.43913 6.24927 8.5 6.24927H24.5C25.5609 6.24927 26.5783 6.6707 27.3284 7.42084C28.0786 8.17099 28.5 9.1884 28.5 10.2493V15.5826" stroke="#302525" stroke-width="2" stroke-linecap="round" stroke-linejoin="round"/>
<path d="M24.5 30.2492L28.9667 25.8705C29.2406 25.6047 29.4585 25.2867 29.6075 24.9353C29.7564 24.5839 29.8335 24.2063 29.8341 23.8246C29.8348 23.4429 29.7589 23.065 29.6111 22.7131C29.4632 22.3612 29.2464 22.0425 28.9733 21.7758C28.4165 21.2303 27.6685 20.9241 26.889 20.9226C26.1094 20.9211 25.3602 21.2245 24.8013 21.7678L24.5027 22.0612L24.2053 21.7678C23.6486 21.2227 22.9008 20.9168 22.1216 20.9153C21.3424 20.9138 20.5935 21.2169 20.0347 21.7598C19.7607 22.0255 19.5427 22.3435 19.3936 22.6948C19.2445 23.0461 19.1673 23.4238 19.1665 23.8055C19.1658 24.1872 19.2415 24.5651 19.3892 24.917C19.537 25.269 19.7537 25.5877 20.0267 25.8545L24.5 30.2492Z" stroke="#302525" stroke-width="2" stroke-linecap="round" stroke-linejoin="round"/>
</svg>
