<svg width="25" height="25" viewBox="0 0 25 25" fill="none" xmlns="http://www.w3.org/2000/svg">
<path d="M18.9 20.1309L17.376 18.9119L17.366 18.9039C17.048 18.6489 16.887 18.5209 16.708 18.4299C16.5473 18.3479 16.378 18.2886 16.2 18.2519C16.001 18.2109 15.794 18.2109 15.378 18.2109H6.697C5.579 18.2109 5.019 18.2109 4.592 17.9929C4.21569 17.8012 3.90974 17.4952 3.718 17.1189C3.5 16.6909 3.5 16.1309 3.5 15.0149V7.40794C3.5 6.28994 3.5 5.72994 3.718 5.30294C3.91 4.92648 4.21632 4.62051 4.593 4.42894C5.02 4.21094 5.58 4.21094 6.7 4.21094H18.3C19.42 4.21094 19.98 4.21094 20.408 4.42894C20.7843 4.62068 21.0903 4.92663 21.282 5.30294C21.5 5.73094 21.5 6.29094 21.5 7.41094V18.8819C21.5 19.9479 21.5 20.4809 21.282 20.7539C21.1883 20.8716 21.0692 20.9667 20.9336 21.0319C20.798 21.0972 20.6495 21.1311 20.499 21.1309C20.149 21.1309 19.733 20.7969 18.9 20.1309Z" stroke="#302525" stroke-width="2" stroke-linecap="round" stroke-linejoin="round"/>
</svg>
