<svg width="33" height="33" viewBox="0 0 33 33" fill="none" xmlns="http://www.w3.org/2000/svg">
<path d="M11.1667 12.4999H21.8333M11.1667 17.8333H15.8333M14.4733 26.5159L11.1667 28.4999V24.4999H8.5C7.43913 24.4999 6.42172 24.0785 5.67157 23.3283C4.92143 22.5782 4.5 21.5608 4.5 20.4999V9.83325C4.5 8.77239 4.92143 7.75497 5.67157 7.00482C6.42172 6.25468 7.43913 5.83325 8.5 5.83325H24.5C25.5609 5.83325 26.5783 6.25468 27.3284 7.00482C28.0786 7.75497 28.5 8.77239 28.5 9.83325V15.1666" stroke="#DADADA" stroke-width="2" stroke-linecap="round" stroke-linejoin="round"/>
<path d="M24.5 29.8333L28.9667 25.4546C29.2406 25.1888 29.4585 24.8708 29.6075 24.5194C29.7564 24.168 29.8335 23.7904 29.8341 23.4087C29.8348 23.027 29.7589 22.6491 29.6111 22.2972C29.4632 21.9453 29.2464 21.6266 28.9733 21.3599C28.4165 20.8144 27.6685 20.5082 26.889 20.5067C26.1094 20.5053 25.3602 20.8086 24.8013 21.3519L24.5027 21.6453L24.2053 21.3519C23.6486 20.8068 22.9008 20.5009 22.1216 20.4994C21.3424 20.4979 20.5935 20.801 20.0347 21.3439C19.7607 21.6097 19.5427 21.9276 19.3936 22.2789C19.2445 22.6303 19.1673 23.0079 19.1665 23.3896C19.1658 23.7713 19.2415 24.1492 19.3892 24.5011C19.537 24.8531 19.7537 25.1718 20.0267 25.4386L24.5 29.8333Z" stroke="#DADADA" stroke-width="2" stroke-linecap="round" stroke-linejoin="round"/>
</svg>
