<svg width="32" height="32" viewBox="0 0 32 32" fill="none" xmlns="http://www.w3.org/2000/svg">
<path d="M25.3333 31.0667L24.5333 30.4C21.8666 27.8667 19.9999 26.2667 19.9999 24.2667C19.9999 22.6667 21.3333 21.3334 22.9333 21.3334C23.8666 21.3334 24.7999 21.7334 25.3333 22.4C25.8666 21.7334 26.7999 21.3334 27.7333 21.3334C29.3333 21.3334 30.6666 22.5334 30.6666 24.2667C30.6666 26.2667 28.7999 27.8667 26.1333 30.4L25.3333 31.0667ZM23.9999 2.66669C25.4666 2.66669 26.6666 3.86669 26.6666 5.33335V17.44L25.3333 17.3334L23.9999 17.44V5.33335H17.3333V16L13.9999 13L10.6666 16V5.33335H7.99992V26.6667H17.4399C17.5999 27.6267 17.9333 28.52 18.3999 29.3334H7.99992C6.53325 29.3334 5.33325 28.1334 5.33325 26.6667V5.33335C5.33325 3.86669 6.53325 2.66669 7.99992 2.66669H23.9999Z" fill="#302525"/>
</svg>
