<svg width="33" height="33" viewBox="0 0 33 33" fill="none" xmlns="http://www.w3.org/2000/svg">
<path d="M25.8333 32.0167L25.0333 31.35C22.3666 28.8167 20.4999 27.2167 20.4999 25.2167C20.4999 23.6167 21.8333 22.2834 23.4333 22.2834C24.3666 22.2834 25.2999 22.6834 25.8333 23.35C26.3666 22.6834 27.2999 22.2834 28.2333 22.2834C29.8333 22.2834 31.1666 23.4834 31.1666 25.2167C31.1666 27.2167 29.2999 28.8167 26.6333 31.35L25.8333 32.0167ZM8.49992 30.2834C7.79267 30.2834 7.1144 30.0024 6.6143 29.5023C6.1142 29.0022 5.83325 28.3239 5.83325 27.6167V6.28337C5.83325 4.80337 7.01992 3.6167 8.49992 3.6167H9.83325V12.95L13.1666 10.95L16.4999 12.95V3.6167H24.4999C25.2072 3.6167 25.8854 3.89765 26.3855 4.39775C26.8856 4.89784 27.1666 5.57612 27.1666 6.28337V18.39L25.8333 18.2834C24.4293 18.2845 23.0503 18.6548 21.8347 19.357C20.619 20.0593 19.6093 21.0689 18.907 22.2845C18.2046 23.5001 17.8342 24.879 17.833 26.283C17.8318 27.6869 18.1997 29.0665 18.8999 30.2834H8.49992Z" fill="#302525"/>
</svg>
