<svg width="33" height="32" viewBox="0 0 33 32" fill="none" xmlns="http://www.w3.org/2000/svg">
<path d="M26.1665 31.0667L25.3665 30.4C22.6998 27.8667 20.8332 26.2667 20.8332 24.2667C20.8332 22.6667 22.1665 21.3334 23.7665 21.3334C24.6998 21.3334 25.6332 21.7334 26.1665 22.4C26.6998 21.7334 27.6332 21.3334 28.5665 21.3334C30.1665 21.3334 31.4998 22.5334 31.4998 24.2667C31.4998 26.2667 29.6332 27.8667 26.9665 30.4L26.1665 31.0667ZM24.8332 2.66669C26.2998 2.66669 27.4998 3.86669 27.4998 5.33335V17.44L26.1665 17.3334L24.8332 17.44V5.33335H18.1665V16L14.8332 13L11.4998 16V5.33335H8.83317V26.6667H18.2732C18.4332 27.6267 18.7665 28.52 19.2332 29.3334H8.83317C7.3665 29.3334 6.1665 28.1334 6.1665 26.6667V5.33335C6.1665 3.86669 7.3665 2.66669 8.83317 2.66669H24.8332Z" fill="#DADADA"/>
</svg>
