<svg width="33" height="33" viewBox="0 0 33 33" fill="none" xmlns="http://www.w3.org/2000/svg">
<path d="M25.8333 31.5667L25.0333 30.9001C22.3666 28.3667 20.4999 26.7668 20.4999 24.7668C20.4999 23.1667 21.8333 21.8334 23.4333 21.8334C24.3666 21.8334 25.2999 22.2334 25.8333 22.9001C26.3666 22.2334 27.2999 21.8334 28.2333 21.8334C29.8333 21.8334 31.1666 23.0334 31.1666 24.7668C31.1666 26.7668 29.2999 28.3667 26.6333 30.9001L25.8333 31.5667ZM8.49992 29.8334C7.79267 29.8334 7.1144 29.5525 6.6143 29.0524C6.1142 28.5523 5.83325 27.874 5.83325 27.1667V5.83341C5.83325 4.35341 7.01992 3.16675 8.49992 3.16675H9.83325V12.5001L13.1666 10.5001L16.4999 12.5001V3.16675H24.4999C25.2072 3.16675 25.8854 3.4477 26.3855 3.9478C26.8856 4.44789 27.1666 5.12617 27.1666 5.83341V17.9401L25.8333 17.8334C24.4293 17.8345 23.0503 18.2048 21.8347 18.9071C20.619 19.6093 19.6093 20.6189 18.907 21.8345C18.2046 23.0501 17.8342 24.4291 17.833 25.833C17.8318 27.237 18.1997 28.6166 18.8999 29.8334H8.49992Z" fill="#DADADA"/>
</svg>
