<svg width="25" height="25" viewBox="0 0 25 25" fill="none" xmlns="http://www.w3.org/2000/svg">
<path d="M12.5 14.416C12.2033 14.416 11.9133 14.328 11.6666 14.1632C11.42 13.9984 11.2277 13.7641 11.1142 13.49C11.0006 13.216 10.9709 12.9144 11.0288 12.6234C11.0867 12.3324 11.2296 12.0651 11.4393 11.8554C11.6491 11.6456 11.9164 11.5027 12.2074 11.4448C12.4983 11.387 12.7999 11.4167 13.074 11.5302C13.3481 11.6437 13.5824 11.836 13.7472 12.0827C13.912 12.3293 14 12.6193 14 12.916C14 13.3138 13.842 13.6954 13.5607 13.9767C13.2794 14.258 12.8978 14.416 12.5 14.416ZM14 6.54102C14 6.24434 13.912 5.95433 13.7472 5.70766C13.5824 5.46099 13.3481 5.26873 13.074 5.1552C12.7999 5.04167 12.4983 5.01196 12.2074 5.06984C11.9164 5.12772 11.6491 5.27058 11.4393 5.48036C11.2296 5.69013 11.0867 5.95741 11.0288 6.24838C10.9709 6.53935 11.0006 6.84095 11.1142 7.11504C11.2277 7.38913 11.42 7.6234 11.6666 7.78822C11.9133 7.95304 12.2033 8.04102 12.5 8.04102C12.8978 8.04102 13.2794 7.88298 13.5607 7.60168C13.842 7.32037 14 6.93884 14 6.54102ZM14 19.291C14 18.9943 13.912 18.7043 13.7472 18.4577C13.5824 18.211 13.3481 18.0187 13.074 17.9052C12.7999 17.7917 12.4983 17.762 12.2074 17.8198C11.9164 17.8777 11.6491 18.0206 11.4393 18.2304C11.2296 18.4401 11.0867 18.7074 11.0288 18.9984C10.9709 19.2894 11.0006 19.591 11.1142 19.865C11.2277 20.1391 11.42 20.3734 11.6666 20.5382C11.9133 20.703 12.2033 20.791 12.5 20.791C12.8978 20.791 13.2794 20.633 13.5607 20.3517C13.842 20.0704 14 19.6888 14 19.291Z" fill="#302525"/>
</svg>
