<svg width="20" height="21" viewBox="0 0 20 21" fill="none" xmlns="http://www.w3.org/2000/svg">
<path d="M13.8768 3.29512L14.4177 2.75429C14.848 2.32408 15.4316 2.08244 16.04 2.08252C16.6485 2.0826 17.232 2.32439 17.6622 2.7547C18.0924 3.18502 18.3341 3.7686 18.334 4.37708C18.3339 4.98556 18.0921 5.56908 17.6618 5.99929L17.1202 6.54012C17.1202 6.54012 15.9718 6.47262 14.9585 5.45845C13.9443 4.44512 13.8768 3.29595 13.8768 3.29595L8.90599 8.26595C8.56932 8.60262 8.40099 8.77095 8.25599 8.95679C8.08488 9.17623 7.93932 9.41179 7.81932 9.66345C7.71849 9.87595 7.64349 10.1018 7.49265 10.5535L7.01015 11.9993M7.01015 11.9993L6.69849 12.9343C6.66183 13.0433 6.65632 13.1604 6.68258 13.2724C6.70884 13.3845 6.76583 13.4869 6.84713 13.5683C6.92844 13.6497 7.03083 13.7068 7.14281 13.7332C7.25479 13.7595 7.3719 13.7542 7.48099 13.7176L8.41682 13.406M7.01015 11.9993L8.41682 13.406M17.121 6.53929L12.1502 11.5101C11.8135 11.8468 11.6452 12.0151 11.4593 12.1601C11.2403 12.3308 11.0033 12.4773 10.7527 12.5968C10.5402 12.6976 10.3143 12.7726 9.86265 12.9235L8.41682 13.406" stroke="#302525"/>
<path d="M18.3334 10.4159C18.3334 15.0184 14.6026 18.7492 10.0001 18.7492C5.39758 18.7492 1.66675 15.0184 1.66675 10.4159C1.66675 5.81335 5.39758 2.08252 10.0001 2.08252" stroke="#302525" stroke-linecap="round"/>
</svg>
