<svg width="20" height="20" viewBox="0 0 20 20" fill="none" xmlns="http://www.w3.org/2000/svg">
<path d="M10.0001 1.6665C5.39175 1.6665 1.66675 5.3915 1.66675 9.99984C1.66675 14.6082 5.39175 18.3332 10.0001 18.3332C14.6084 18.3332 18.3334 14.6082 18.3334 9.99984C18.3334 5.3915 14.6084 1.6665 10.0001 1.6665ZM12.5834 5.8915C12.7001 5.8915 12.8167 5.93317 12.9167 6.02484L13.9751 7.08317C14.1667 7.2665 14.1667 7.55817 13.9751 7.73317L13.1417 8.5665L11.4334 6.85817L12.2667 6.02484C12.3501 5.93317 12.4667 5.8915 12.5834 5.8915ZM10.9417 7.3415L12.6584 9.05817L7.60841 14.1082H5.89175V12.3915L10.9417 7.3415Z" fill="#302525"/>
</svg>
