<svg width="31" height="31" viewBox="0 0 31 31" fill="none" xmlns="http://www.w3.org/2000/svg">
<path d="M28.2188 13.8082C28.4479 14.0582 28.5625 14.3552 28.5625 14.6994C28.5625 15.0436 28.4479 15.3403 28.2188 15.5894L23.7812 19.9957C23.5521 20.2457 23.2604 20.3707 22.9062 20.3707C22.5521 20.3707 22.2604 20.2457 22.0312 19.9957L20.25 18.2457C20 17.9957 19.875 17.699 19.875 17.3557C19.875 17.0123 20 16.7152 20.25 16.4644C20.5 16.2352 20.7971 16.1207 21.1413 16.1207C21.4854 16.1207 21.7821 16.2352 22.0312 16.4644L22.9062 17.3394L26.4375 13.8082C26.6875 13.579 26.9842 13.4644 27.3275 13.4644C27.6708 13.4644 27.9679 13.579 28.2188 13.8082ZM13.4062 26.1832L10.2812 23.3394C8.78125 21.9852 7.495 20.7769 6.4225 19.7144C5.35 18.6519 4.46458 17.6519 3.76625 16.7144C3.06792 15.7769 2.5575 14.8707 2.235 13.9957C1.9125 13.1207 1.75083 12.204 1.75 11.2457C1.75 9.28733 2.40625 7.65733 3.71875 6.35567C5.03125 5.054 6.66667 4.40275 8.625 4.40192C9.70833 4.40192 10.7396 4.62608 11.7188 5.07442C12.6979 5.52275 13.5417 6.16317 14.25 6.99567C14.9583 6.16233 15.8021 5.52192 16.7812 5.07442C17.7604 4.62692 18.7917 4.40275 19.875 4.40192C21.6458 4.40192 23.1304 4.93858 24.3288 6.01192C25.5271 7.08525 26.2717 8.34025 26.5625 9.77692C26.1458 9.61025 25.7083 9.50608 25.25 9.46442C24.7917 9.42275 24.3229 9.40192 23.8438 9.40192C22.0729 9.40192 20.4479 10.1157 18.9688 11.5432C17.4896 12.9707 16.75 14.7569 16.75 16.9019C16.75 17.9019 16.9688 18.9177 17.4062 19.9494C17.8438 20.9811 18.4583 21.8194 19.25 22.4644C18.8542 22.8186 18.3387 23.2719 17.7037 23.8244C17.0687 24.3769 16.5217 24.8611 16.0625 25.2769L15.0625 26.1832C14.8333 26.3915 14.5571 26.4957 14.2338 26.4957C13.9104 26.4957 13.6346 26.3915 13.4062 26.1832Z" fill="#302525"/>
</svg>
