<svg width="33" height="33" viewBox="0 0 33 33" fill="none" xmlns="http://www.w3.org/2000/svg">
<path d="M15.8334 28.5H11.9321C10.9766 28.4999 10.0527 28.1579 9.32757 27.5357C8.60244 26.9135 8.12396 26.0523 7.97873 25.108L6.3054 14.2386C6.24696 13.8586 6.27138 13.4704 6.37701 13.1007C6.48263 12.731 6.66695 12.3886 6.91733 12.0968C7.16771 11.805 7.47822 11.5708 7.82759 11.4102C8.17696 11.2497 8.55691 11.1666 8.9414 11.1666H24.0601C24.4446 11.1666 24.8245 11.2497 25.1739 11.4102C25.5232 11.5708 25.8338 11.805 26.0841 12.0968C26.3345 12.3886 26.5188 12.731 26.6245 13.1007C26.7301 13.4704 26.7545 13.8586 26.6961 14.2386C26.6196 14.7293 26.5632 15.0973 26.5267 15.3426" stroke="#DADADA" stroke-width="2" stroke-linecap="round" stroke-linejoin="round"/>
<path d="M12.5 15.1666V8.49994C12.5 7.43907 12.9214 6.42166 13.6716 5.67151C14.4217 4.92137 15.4391 4.49994 16.5 4.49994C17.5609 4.49994 18.5783 4.92137 19.3284 5.67151C20.0786 6.42166 20.5 7.43907 20.5 8.49994V15.1666M24.5 29.8333L28.9667 25.4546C29.2406 25.1888 29.4585 24.8708 29.6075 24.5194C29.7564 24.168 29.8335 23.7904 29.8342 23.4087C29.8348 23.027 29.7589 22.6491 29.6111 22.2972C29.4632 21.9453 29.2464 21.6266 28.9733 21.3599C28.4165 20.8144 27.6685 20.5082 26.889 20.5067C26.1095 20.5052 25.3602 20.8086 24.8013 21.3519L24.5027 21.6453L24.2053 21.3519C23.6486 20.8068 22.9008 20.5009 22.1216 20.4994C21.3424 20.4979 20.5935 20.801 20.0347 21.3439C19.7607 21.6096 19.5427 21.9276 19.3936 22.2789C19.2445 22.6303 19.1673 23.0079 19.1665 23.3896C19.1658 23.7713 19.2415 24.1492 19.3892 24.5011C19.537 24.8531 19.7537 25.1718 20.0267 25.4386L24.5 29.8333Z" stroke="#DADADA" stroke-width="2" stroke-linecap="round" stroke-linejoin="round"/>
</svg>
