<svg width="33" height="33" viewBox="0 0 33 33" fill="none" xmlns="http://www.w3.org/2000/svg">
<path d="M15.8334 28.8822H11.9321C10.9766 28.8821 10.0527 28.5401 9.32757 27.9179C8.60244 27.2957 8.12396 26.4345 7.97873 25.4902L6.3054 14.6208C6.24696 14.2408 6.27138 13.8526 6.37701 13.4829C6.48263 13.1132 6.66695 12.7708 6.91733 12.479C7.16771 12.1872 7.47822 11.953 7.82759 11.7924C8.17696 11.6319 8.55691 11.5488 8.9414 11.5488H24.0601C24.4446 11.5488 24.8245 11.6319 25.1739 11.7924C25.5232 11.953 25.8338 12.1872 26.0841 12.479C26.3345 12.7708 26.5188 13.1132 26.6245 13.4829C26.7301 13.8526 26.7545 14.2408 26.6961 14.6208C26.6196 15.1115 26.5632 15.4795 26.5267 15.7248" stroke="#302525" stroke-width="2" stroke-linecap="round" stroke-linejoin="round"/>
<path d="M12.5 15.5487V8.88208C12.5 7.82121 12.9214 6.8038 13.6716 6.05365C14.4217 5.30351 15.4391 4.88208 16.5 4.88208C17.5609 4.88208 18.5783 5.30351 19.3284 6.05365C20.0786 6.8038 20.5 7.82121 20.5 8.88208V15.5487M24.5 30.2154L28.9667 25.8367C29.2406 25.5709 29.4585 25.253 29.6075 24.9016C29.7564 24.5502 29.8335 24.1725 29.8342 23.7908C29.8348 23.4091 29.7589 23.0312 29.6111 22.6793C29.4632 22.3275 29.2464 22.0088 28.9733 21.7421C28.4165 21.1966 27.6685 20.8904 26.889 20.8889C26.1095 20.8874 25.3602 21.1907 24.8013 21.7341L24.5027 22.0274L24.2053 21.7341C23.6486 21.189 22.9008 20.883 22.1216 20.8815C21.3424 20.88 20.5935 21.1831 20.0347 21.7261C19.7607 21.9918 19.5427 22.3097 19.3936 22.661C19.2445 23.0124 19.1673 23.3901 19.1665 23.7717C19.1658 24.1534 19.2415 24.5314 19.3892 24.8833C19.537 25.2352 19.7537 25.554 20.0267 25.8207L24.5 30.2154Z" stroke="#302525" stroke-width="2" stroke-linecap="round" stroke-linejoin="round"/>
</svg>
