<svg width="24" height="24" viewBox="0 0 24 24" fill="none" xmlns="http://www.w3.org/2000/svg">
<path d="M16.696 3C14.652 3 12.887 4.197 12 5.943C11.113 4.197 9.348 3 7.304 3C4.374 3 2 5.457 2 8.481C2 11.505 3.817 14.277 6.165 16.554C8.513 18.831 12 21 12 21C12 21 15.374 18.867 17.835 16.554C20.46 14.088 22 11.514 22 8.481C22 5.448 19.626 3 16.696 3Z" stroke="#E94235" stroke-width="1.5" stroke-linecap="round" stroke-linejoin="round"/>
<ellipse cx="7.6626" cy="9.55005" rx="5.30347" ry="6.07568" fill="#E94235"/>
<ellipse cx="16.5604" cy="9.44299" rx="5.02332" ry="5.96863" fill="#E94235"/>
<path d="M12 20.5967L18.7128 14.9856H5.28725L12 20.5967Z" fill="#E94235"/>
<rect x="4.69922" y="11.7847" width="14.613" height="3.62695" fill="#E94235"/>
</svg>
