<svg width="33" height="33" viewBox="0 0 33 33" fill="none" xmlns="http://www.w3.org/2000/svg">
<path d="M5.83325 26.2834V14.2834C5.83325 13.8611 5.92792 13.4611 6.11725 13.0834C6.30659 12.7056 6.56747 12.3945 6.89992 12.15L14.8999 6.15003C15.3666 5.79448 15.8999 5.6167 16.4999 5.6167C17.0999 5.6167 17.6333 5.79448 18.0999 6.15003L26.0999 12.15C26.4333 12.3945 26.6946 12.7056 26.8839 13.0834C27.0733 13.4611 27.1675 13.8611 27.1666 14.2834V26.2834C27.1666 27.0167 26.9053 27.6447 26.3826 28.1674C25.8599 28.69 25.2324 28.9509 24.4999 28.95H20.4999C20.1221 28.95 19.8057 28.822 19.5506 28.566C19.2955 28.31 19.1675 27.9936 19.1666 27.6167V20.95C19.1666 20.5723 19.0386 20.2558 18.7826 20.0007C18.5266 19.7456 18.2101 19.6176 17.8333 19.6167H15.1666C14.7888 19.6167 14.4724 19.7447 14.2173 20.0007C13.9621 20.2567 13.8341 20.5731 13.8333 20.95V27.6167C13.8333 27.9945 13.7053 28.3114 13.4493 28.5674C13.1933 28.8234 12.8768 28.9509 12.4999 28.95H8.49992C7.76659 28.95 7.13903 28.6891 6.61725 28.1674C6.09547 27.6456 5.83414 27.0176 5.83325 26.2834Z" fill="#DADADA"/>
</svg>
