<svg width="33" height="33" viewBox="0 0 33 33" fill="none" xmlns="http://www.w3.org/2000/svg">
<path d="M5.83325 25.8334V13.8334C5.83325 13.4112 5.92792 13.0112 6.11725 12.6334C6.30659 12.2556 6.56747 11.9445 6.89992 11.7001L14.8999 5.70008C15.3666 5.34453 15.8999 5.16675 16.4999 5.16675C17.0999 5.16675 17.6333 5.34453 18.0999 5.70008L26.0999 11.7001C26.4333 11.9445 26.6946 12.2556 26.8839 12.6334C27.0733 13.0112 27.1675 13.4112 27.1666 13.8334V25.8334C27.1666 26.5667 26.9053 27.1947 26.3826 27.7174C25.8599 28.2401 25.2324 28.501 24.4999 28.5001H20.4999C20.1221 28.5001 19.8057 28.3721 19.5506 28.1161C19.2955 27.8601 19.1675 27.5436 19.1666 27.1667V20.5001C19.1666 20.1223 19.0386 19.8059 18.7826 19.5507C18.5266 19.2956 18.2101 19.1676 17.8333 19.1667H15.1666C14.7888 19.1667 14.4724 19.2947 14.2173 19.5507C13.9621 19.8067 13.8341 20.1232 13.8333 20.5001V27.1667C13.8333 27.5445 13.7053 27.8614 13.4493 28.1174C13.1933 28.3734 12.8768 28.501 12.4999 28.5001H8.49992C7.76659 28.5001 7.13903 28.2392 6.61725 27.7174C6.09547 27.1956 5.83414 26.5676 5.83325 25.8334Z" fill="#302525"/>
</svg>
