<svg width="19" height="19" viewBox="0 0 19 19" fill="none" xmlns="http://www.w3.org/2000/svg">
<path fill-rule="evenodd" clip-rule="evenodd" d="M6.82726 10.1069C6.68665 9.96626 6.60767 9.77553 6.60767 9.57666C6.60767 9.37779 6.68665 9.18706 6.82726 9.04641L11.07 4.80366C11.1392 4.73203 11.2219 4.67489 11.3135 4.63558C11.405 4.59628 11.5034 4.57559 11.603 4.57472C11.7025 4.57386 11.8013 4.59283 11.8935 4.63054C11.9856 4.66825 12.0694 4.72394 12.1398 4.79436C12.2102 4.86478 12.2659 4.94852 12.3036 5.04069C12.3413 5.13287 12.3603 5.23163 12.3594 5.33121C12.3586 5.4308 12.3379 5.52921 12.2986 5.62071C12.2593 5.71222 12.2021 5.79497 12.1305 5.86416L8.41801 9.57666L12.1305 13.2892C12.2671 13.4306 12.3427 13.6201 12.341 13.8167C12.3393 14.0134 12.2604 14.2015 12.1214 14.3405C11.9823 14.4796 11.7942 14.5585 11.5976 14.5602C11.4009 14.5619 11.2115 14.4863 11.07 14.3497L6.82726 10.1069Z" fill="#302525"/>
</svg>
