<svg width="33" height="33" viewBox="0 0 33 33" fill="none" xmlns="http://www.w3.org/2000/svg">
<path d="M21.2901 4.08801C20.0739 2.77488 18.3751 2.05176 16.5001 2.05176C14.6151 2.05176 12.9107 2.77051 11.7001 4.07551C10.4764 5.39488 9.88011 7.18801 10.0201 9.12426C10.2976 12.9443 13.2045 16.0518 16.5001 16.0518C19.7957 16.0518 22.6976 12.9449 22.9795 9.12551C23.1214 7.20676 22.5214 5.41738 21.2901 4.08801ZM27.5001 30.0518H5.50011C5.21215 30.0555 4.92698 29.995 4.66534 29.8747C4.4037 29.7543 4.17218 29.5772 3.98761 29.3561C3.58136 28.8705 3.41761 28.2074 3.53886 27.5368C4.06636 24.6105 5.71261 22.1524 8.30011 20.4268C10.5989 18.8949 13.5107 18.0518 16.5001 18.0518C19.4895 18.0518 22.4014 18.8955 24.7001 20.4268C27.2876 22.1518 28.9339 24.6099 29.4614 27.5361C29.5826 28.2068 29.4189 28.8699 29.0126 29.3555C28.8281 29.5767 28.5966 29.754 28.335 29.8744C28.0733 29.9948 27.7881 30.0554 27.5001 30.0518Z" fill="#302525"/>
</svg>
