<svg width="33" height="33" viewBox="0 0 33 33" fill="none" xmlns="http://www.w3.org/2000/svg">
<path d="M21.2901 4.53619C20.0739 3.22306 18.3751 2.49994 16.5001 2.49994C14.6151 2.49994 12.9107 3.21869 11.7001 4.52369C10.4764 5.84306 9.88011 7.63619 10.0201 9.57244C10.2976 13.3924 13.2045 16.4999 16.5001 16.4999C19.7957 16.4999 22.6976 13.3931 22.9795 9.57369C23.1214 7.65494 22.5214 5.86556 21.2901 4.53619ZM27.5001 30.4999H5.50011C5.21215 30.5037 4.92698 30.4432 4.66534 30.3229C4.4037 30.2025 4.17218 30.0254 3.98761 29.8043C3.58136 29.3187 3.41761 28.6556 3.53886 27.9849C4.06636 25.0587 5.71261 22.6006 8.30011 20.8749C10.5989 19.3431 13.5107 18.4999 16.5001 18.4999C19.4895 18.4999 22.4014 19.3437 24.7001 20.8749C27.2876 22.5999 28.9339 25.0581 29.4614 27.9843C29.5826 28.6549 29.4189 29.3181 29.0126 29.8037C28.8281 30.0249 28.5966 30.2021 28.335 30.3226C28.0733 30.443 27.7881 30.5036 27.5001 30.4999Z" fill="#DADADA"/>
</svg>
