<svg width="39" height="48" viewBox="0 0 39 48" fill="none" xmlns="http://www.w3.org/2000/svg">
<path d="M32.8139 25.0947C34.3271 25.0947 35.7783 25.6959 36.8483 26.7658C37.9183 27.8358 38.5194 29.2871 38.5194 30.8003V32.7021C38.5194 40.1991 31.4446 47.9168 19.501 47.9168C7.5575 47.9168 0.482666 40.1991 0.482666 32.7021V30.8003C0.482666 29.2871 1.08378 27.8358 2.15377 26.7658C3.22376 25.6959 4.67498 25.0947 6.18818 25.0947H32.8139ZM19.501 0.37085C22.2752 0.37085 24.9358 1.47289 26.8975 3.43454C28.8591 5.3962 29.9612 8.05677 29.9612 10.831C29.9612 13.6052 28.8591 16.2657 26.8975 18.2274C24.9358 20.189 22.2752 21.2911 19.501 21.2911C16.7269 21.2911 14.0663 20.189 12.1046 18.2274C10.143 16.2657 9.04094 13.6052 9.04094 10.831C9.04094 8.05677 10.143 5.3962 12.1046 3.43454C14.0663 1.47289 16.7269 0.37085 19.501 0.37085Z" fill="#302525"/>
</svg>
