<svg width="16" height="17" viewBox="0 0 16 17" fill="none" xmlns="http://www.w3.org/2000/svg">
<path d="M11.9999 9.5389H8.66659V12.8722C8.66659 13.049 8.59635 13.2186 8.47132 13.3436C8.3463 13.4687 8.17673 13.5389 7.99992 13.5389C7.82311 13.5389 7.65354 13.4687 7.52851 13.3436C7.40349 13.2186 7.33325 13.049 7.33325 12.8722V9.5389H3.99992C3.82311 9.5389 3.65354 9.46866 3.52851 9.34364C3.40349 9.21861 3.33325 9.04904 3.33325 8.87223C3.33325 8.69542 3.40349 8.52585 3.52851 8.40083C3.65354 8.2758 3.82311 8.20557 3.99992 8.20557H7.33325V4.87223C7.33325 4.69542 7.40349 4.52585 7.52851 4.40083C7.65354 4.2758 7.82311 4.20557 7.99992 4.20557C8.17673 4.20557 8.3463 4.2758 8.47132 4.40083C8.59635 4.52585 8.66659 4.69542 8.66659 4.87223V8.20557H11.9999C12.1767 8.20557 12.3463 8.2758 12.4713 8.40083C12.5963 8.52585 12.6666 8.69542 12.6666 8.87223C12.6666 9.04904 12.5963 9.21861 12.4713 9.34364C12.3463 9.46866 12.1767 9.5389 11.9999 9.5389Z" fill="#302525"/>
</svg>
