<svg width="41" height="41" viewBox="0 0 41 41" fill="none" xmlns="http://www.w3.org/2000/svg">
<circle cx="20.8662" cy="20.2119" r="20" fill="#302525"/>
<path d="M26.6309 20.8887H21.6309V25.8887C21.6309 26.1539 21.5255 26.4082 21.338 26.5958C21.1504 26.7833 20.8961 26.8887 20.6309 26.8887C20.3656 26.8887 20.1113 26.7833 19.9238 26.5958C19.7362 26.4082 19.6309 26.1539 19.6309 25.8887V20.8887H14.6309C14.3656 20.8887 14.1113 20.7833 13.9238 20.5958C13.7362 20.4082 13.6309 20.1539 13.6309 19.8887C13.6309 19.6235 13.7362 19.3691 13.9238 19.1816C14.1113 18.994 14.3656 18.8887 14.6309 18.8887H19.6309V13.8887C19.6309 13.6235 19.7362 13.3691 19.9238 13.1816C20.1113 12.994 20.3656 12.8887 20.6309 12.8887C20.8961 12.8887 21.1504 12.994 21.338 13.1816C21.5255 13.3691 21.6309 13.6235 21.6309 13.8887V18.8887H26.6309C26.8961 18.8887 27.1504 18.994 27.338 19.1816C27.5255 19.3691 27.6309 19.6235 27.6309 19.8887C27.6309 20.1539 27.5255 20.4082 27.338 20.5958C27.1504 20.7833 26.8961 20.8887 26.6309 20.8887Z" fill="white"/>
</svg>
