<svg width="18" height="19" viewBox="0 0 18 19" fill="none" xmlns="http://www.w3.org/2000/svg">
<path fill-rule="evenodd" clip-rule="evenodd" d="M11.7802 10.1069C11.9208 9.96626 11.9998 9.77553 11.9998 9.57666C11.9998 9.37779 11.9208 9.18706 11.7802 9.04641L7.53742 4.80366C7.46823 4.73203 7.38547 4.67489 7.29397 4.63558C7.20247 4.59628 7.10405 4.57559 7.00447 4.57472C6.90488 4.57386 6.80612 4.59283 6.71395 4.63054C6.62178 4.66825 6.53804 4.72394 6.46762 4.79436C6.3972 4.86478 6.34151 4.94852 6.3038 5.04069C6.26609 5.13287 6.24711 5.23163 6.24798 5.33121C6.24884 5.4308 6.26953 5.52921 6.30884 5.62071C6.34815 5.71222 6.40528 5.79497 6.47692 5.86416L10.1894 9.57666L6.47692 13.2892C6.3403 13.4306 6.2647 13.6201 6.26641 13.8167C6.26812 14.0134 6.347 14.2015 6.48605 14.3405C6.62511 14.4796 6.81322 14.5585 7.00986 14.5602C7.20651 14.5619 7.39596 14.4863 7.53742 14.3497L11.7802 10.1069Z" fill="#302525"/>
</svg>
