<svg width="19" height="19" viewBox="0 0 19 19" fill="none" xmlns="http://www.w3.org/2000/svg">
<path fill-rule="evenodd" clip-rule="evenodd" d="M12.2802 10.4606C12.4208 10.32 12.4998 10.1292 12.4998 9.93037C12.4998 9.7315 12.4208 9.54077 12.2802 9.40012L8.03742 5.15737C7.96823 5.08574 7.88547 5.0286 7.79397 4.9893C7.70247 4.94999 7.60405 4.9293 7.50447 4.92843C7.40488 4.92757 7.30612 4.94655 7.21395 4.98426C7.12178 5.02197 7.03804 5.07766 6.96762 5.14808C6.8972 5.2185 6.84151 5.30223 6.8038 5.39441C6.76609 5.48658 6.74711 5.58534 6.74798 5.68492C6.74884 5.78451 6.76953 5.88292 6.80884 5.97443C6.84815 6.06593 6.90528 6.14869 6.97692 6.21787L10.6894 9.93037L6.97692 13.6429C6.8403 13.7843 6.7647 13.9738 6.76641 14.1704C6.76812 14.3671 6.847 14.5552 6.98605 14.6942C7.12511 14.8333 7.31322 14.9122 7.50986 14.9139C7.70651 14.9156 7.89596 14.84 8.03742 14.7034L12.2802 10.4606Z" fill="#302525"/>
</svg>
