<svg width="25" height="25" viewBox="0 0 25 25" fill="none" xmlns="http://www.w3.org/2000/svg">
<path d="M22.2653 10.78L2.91731 1.34102C2.73138 1.25042 2.52545 1.20861 2.3189 1.21954C2.11236 1.23047 1.91199 1.29377 1.73666 1.40349C1.56132 1.51321 1.41679 1.66574 1.31666 1.84672C1.21654 2.0277 1.16411 2.23119 1.16431 2.43802V2.47302C1.16441 2.63653 1.18456 2.79942 1.22431 2.95802L3.08031 10.382C3.10519 10.4809 3.15971 10.5698 3.23657 10.6369C3.31343 10.7039 3.40894 10.7458 3.51031 10.757L11.6673 11.664C11.803 11.6803 11.9281 11.7458 12.0188 11.8481C12.1095 11.9504 12.1596 12.0823 12.1596 12.219C12.1596 12.3557 12.1095 12.4877 12.0188 12.5899C11.9281 12.6922 11.803 12.7577 11.6673 12.774L3.51031 13.681C3.40894 13.6922 3.31343 13.7341 3.23657 13.8012C3.15971 13.8682 3.10519 13.9571 3.08031 14.056L1.22431 21.479C1.18456 21.6376 1.16441 21.8005 1.16431 21.964V21.999C1.16428 22.2058 1.21683 22.4091 1.31703 22.59C1.41722 22.7708 1.56177 22.9232 1.73708 23.0328C1.91239 23.1424 2.11269 23.2056 2.31915 23.2165C2.52561 23.2274 2.73145 23.1856 2.91731 23.095L22.2643 13.656C22.5337 13.5246 22.7608 13.3201 22.9197 13.0658C23.0785 12.8116 23.1628 12.5178 23.1628 12.218C23.1628 11.9182 23.0785 11.6245 22.9197 11.3702C22.7608 11.116 22.5347 10.9115 22.2653 10.78Z" fill="#302525"/>
</svg>
