<svg width="31" height="31" viewBox="0 0 31 31" fill="none" xmlns="http://www.w3.org/2000/svg">
<path d="M15.4997 25.9329H26.7497M20.9697 5.4604C21.4673 4.96278 22.1422 4.68323 22.846 4.68323C23.5497 4.68323 24.2246 4.96278 24.7222 5.4604C25.2198 5.95801 25.4994 6.63292 25.4994 7.33665C25.4994 8.04038 25.2198 8.71528 24.7222 9.2129L9.70973 24.2266C9.41235 24.524 9.04476 24.7416 8.64098 24.8591L5.05098 25.9066C4.94342 25.938 4.8294 25.9399 4.72086 25.9121C4.61233 25.8843 4.51326 25.8278 4.43403 25.7486C4.35481 25.6694 4.29834 25.5703 4.27053 25.4618C4.24272 25.3532 4.2446 25.2392 4.27598 25.1316L5.32348 21.5416C5.44125 21.1383 5.65879 20.7712 5.95598 20.4741L20.9697 5.4604Z" stroke="black" stroke-width="2" stroke-linecap="round" stroke-linejoin="round"/>
</svg>
